<?xml version="1.0" standalone="no"?>
<!DOCTYPE svg PUBLIC "-//W3C//DTD SVG 1.1//EN" "http://www.w3.org/Graphics/SVG/1.1/DTD/svg11.dtd" >
<svg xmlns="http://www.w3.org/2000/svg">
<metadata></metadata>
<defs>
<font id="jonny_quest_classicregular" horiz-adv-x="80" >
<font-face units-per-em="2048" ascent="1638" descent="-410" />
<missing-glyph horiz-adv-x="495" />
<glyph horiz-adv-x="2048" />
<glyph horiz-adv-x="2048" />
<glyph unicode="&#xd;" />
<glyph unicode=" "  horiz-adv-x="495" />
<glyph unicode="&#x09;" horiz-adv-x="495" />
<glyph unicode="&#xa0;" horiz-adv-x="495" />
<glyph unicode="!" horiz-adv-x="471" d="M68 977q-26 412 18 586l13 24q80 70 140 75q122 11 136 -207q5 -80 -7 -213l1 3q-6 -296 -25 -468.5t-21 -224.5q-10 -138 -93 -155q-59 -11 -88 85.5t-28 268.5q-35 66 -39 122.5t-7 103.5zM99 127q-2 23 0.5 50.5t9.5 57.5l9 19q46 53 87 58q29 2 51 -15.5t40 -53.5 q24 -51 27 -93q4 -64 -33 -107q-32 -43 -74 -46q-34 -3 -67 21q-46 33 -50 109z" />
<glyph unicode="&#x22;" horiz-adv-x="518" d="M101 1335q5 28 16 47.5t30 30.5q14 9 32 15.5t39 8.5l-1 -1q41 7 94 -5q71 -15 85 -87q5 -36 -13 -61t-66 -39v-1q0 -36 50 -110q12 -32 12 -55q0 -59 -59 -64l-15 2q-54 20 -70 43q-5 8 -10 14t-11 14q-9 11 -27.5 46t-50.5 100q-23 24 -31 49t-4 53z" />
<glyph unicode="#" horiz-adv-x="1003" d="M55 429q-3 45 45 95l98 20q3 27 4 51.5t3 48.5t3.5 50t3.5 55q-27 3 -56.5 5.5t-52.5 5.5q-32 48 -35 80q-4 68 83 103l96 8v162q56 57 100 60q67 5 89 -91l-10 -141q10 -1 20.5 -1t20.5 -1q19 1 32.5 1.5t26 0.5t26 0.5t32.5 1.5q0 31 1 61.5t1 59.5q33 85 87 88 q50 4 104 -76l1 -148q20 -1 42.5 -3t41.5 -4q53 -38 57 -84q3 -46 -55 -104l-92 -10l-2 -133l68 5q68 -43 71 -92q4 -51 -57 -109l-80 -6q-2 -14 -3.5 -28t-2.5 -28q0 -26 0.5 -58.5t0.5 -57.5q-24 -36 -46.5 -54.5t-46.5 -20.5q-49 -4 -78 61l-29 99l-1 73l-176 -12 q-7 -61 -15 -123.5t-15 -121.5q-19 -25 -37 -37t-35 -13q-58 -4 -89 99v181q-24 0 -49 0.5t-46 0.5q-46 43 -49 81zM402 564l174 12l-1 156q-42 -2 -79.5 -4t-84.5 -3q-1 -20 -2 -38.5t-2 -38t-2.5 -40t-2.5 -44.5z" />
<glyph unicode="$" horiz-adv-x="603" d="M-19 514q27 80 116 -25q20 0 53 -6q29 -4 54.5 -7t49.5 -3q43 0 71.5 10.5t42.5 34.5q8 13 8 25q0 14 -13 31q-14 20 -30 32t-34 17q-53 16 -137 68q-42 27 -74 65t-50 78q-17 43 -17 88q0 26 5.5 51t14.5 51q39 102 118 135h-1q15 7 28 12t25 9v105q0 109 60 112 q14 1 35.5 0t56.5 -6l6 -220q11 -5 24 -10.5t27 -10.5q28 -10 53 -31t45 -53q14 -23 22 -47t8 -48q0 -8 -1 -18t-5 -21h1q-2 -8 -4 -14t-4 -13q-4 -17 -4.5 -9.5t-2.5 -3.5q-14 -64 -53 -64q-52 -7 -68 16.5t-9 35.5q14 21 -21 54q0 5 -1.5 14t-3.5 17q-6 18 -14.5 31.5 t-19.5 18.5q-27 12 -54 6q-27 -5 -45 -29.5t-28 -73.5q-8 -38 34 -65q28 -19 70.5 -40t99.5 -46q136 -60 139 -193v1q4 -124 -38 -174q-34 -38 -71.5 -54.5t-83.5 -24.5q-9 -155 -59 -163h-48q-57 5 -56 96q0 14 0.5 21t0.5 12.5v11.5t1 18q-25 1 -55 17.5t-59 19.5 q-88 45 -105 159z" />
<glyph unicode="%" horiz-adv-x="1063" d="M32 1018q0 35 3 77q2 39 10.5 76t19.5 70q17 45 42.5 80t55.5 49l-5 -3q16 10 39 10q9 0 17 -1.5t18 -4.5h-3q10 -2 14 -3h-3q10 -2 11 -2q8 0 19.5 -0.5t25.5 -1.5q51 -11 88.5 -41.5t63.5 -83.5v1q19 -41 29 -85t10 -93q0 -85 -31 -166q-37 -96 -108 -140 q-16 -8 -31.5 -13t-32.5 -5q-8 0 -23 4q-7 2 -15 3t-21 4q-9 2 -28.5 6t-49.5 14q-115 51 -115 249zM116 32q-43 37 65.5 261t374.5 634v-1q58 97 117 193t117 193v-1q63 110 128 110q35 0 62 -27l7 -9q10 -19 0 -61.5t-38.5 -104.5t-73.5 -142.5t-104 -174.5 q-72 -116 -146.5 -238t-145.5 -238l-81 -126l-63 -98q-23 -36 -40 -62t-27 -42q-58 -88 -135 -78zM176 1033q0 -33 4 -62.5t12 -54.5q17 -55 45 -55q24 0 43 16.5t33 47.5q12 29 19 63.5t7 72.5q0 113 -45 160q-25 26 -40 26q-32 0 -56 -74q-12 -33 -17 -68.5t-5 -71.5z M545 272q0 16 0.5 35t2.5 38q6 76 29 143q16 44 40.5 77t53.5 47q15 7 35 7q16 0 34 -6h-2q18 -3 23 -4q16 0 42 -3q94 -19 146 -120q38 -76 38 -173q0 -82 -30 -160q-36 -92 -104 -134q-16 -10 -31.5 -14t-31.5 -4q-2 0 -15.5 2t-40.5 7q-14 2 -30.5 6t-38.5 9 q-60 26 -90 88t-30 159zM691 286q0 -67 15 -113q17 -53 43 -53q45 0 71 62q24 55 24 130q0 112 -41 154h1q-24 24 -39 24q-32 0 -53 -69q-21 -65 -21 -135z" />
<glyph unicode="&#x26;" horiz-adv-x="1139" d="M24 446q0 121 68 235q11 16 40 55t79 103q-35 56 -51.5 123t-16.5 148q0 146 102 268q103 121 242 121q89 0 123 -28q97 -59 97 -155q0 -53 -67.5 -181.5t-209.5 -343.5q21 -32 50 -64t69 -67l-2 1q20 -17 37 -31.5t33 -28t32 -27.5t37 -32q25 29 47 63t41 68 q49 98 87 238q1 65 56 65q59 0 87 -88l-1 1q9 -30 9 -61q0 -30 -10 -72q-5 -16 -12.5 -38t-18 -47t-22 -51.5t-23.5 -51.5q-20 -43 -43.5 -81.5t-49.5 -68.5q27 -14 67.5 -32.5t94.5 -42.5q10 -32 14 -52.5t4 -26.5q-29 -70 -80 -70q-56 0 -130 50q-3 2 -7 5.5t-12.5 10 t-23 18.5t-36.5 30q-36 -29 -75.5 -55t-81.5 -46v1q-113 -56 -206 -56q-48 0 -93.5 13.5t-88.5 39.5q-39 26 -73 62.5t-56 80.5q-26 52 -26 98zM214 398q0 -29 20.5 -45.5t50.5 -16.5q129 0 288 101q-63 54 -120.5 108.5t-111.5 111.5q-127 -179 -127 -259zM343 1070 q0 -44 3 -78q24 33 49 66.5t49 66.5l-3 -5q74 144 74 185q0 13 -31 13q-33 4 -88 -78q-53 -84 -53 -170z" />
<glyph unicode="'" horiz-adv-x="507" d="M181 880q0 11 1.5 24.5t6.5 30.5q26 63 26 94q0 14 -10 26q-24 67 -12 106q6 19 15 32t20 24q13 12 27.5 15.5t29.5 0.5q16 -3 27.5 -7.5t20.5 -14t15.5 -26t10.5 -44.5v1q11 -54 -19 -106q-20 -65 -32 -100t-17 -46q-4 -8 -7.5 -14t-5.5 -13q-11 -24 -46 -44l-12 -3 q-39 4 -39 64z" />
<glyph unicode="(" horiz-adv-x="374" d="M3 712q0 80 5 154.5t13 146.5q26 196 76 295q58 116 143 116h6q80 -12 80 -100q0 -30 -12 -78q-124 -94 -124 -645v-37q0 -227 95 -397q45 -41 45 -82q0 -34 -28 -59v1q-29 -26 -63 -26q-18 0 -37.5 7.5t-39.5 24.5q-63 54 -107 219q-20 80 -33 171t-17 196 q-1 24 -1.5 47t-0.5 46z" />
<glyph unicode=")" horiz-adv-x="373" d="M39 91q0 20 12.5 41.5t32.5 40.5q95 169 95 397v37q0 551 -124 645q-12 48 -12 78q0 88 80 100h6q37 0 70.5 -28t62 -81t50 -129t34.5 -173q8 -70 13.5 -147.5t5.5 -154.5q0 -23 -0.5 -46t-1.5 -46q-4 -106 -16.5 -197t-33.5 -171v1q-44 -165 -107 -219q-38 -32 -76 -32 q-34 0 -63 26v-1q-28 25 -28 59z" />
<glyph unicode="*" horiz-adv-x="492" d="M15 1076q0 20 24 45t70 54q-8 4 -15.5 8t-12.5 7q-60 35 -63 80q-10 70 72 70q27 0 86 -30l4 32q24 119 85 118q64 -3 64 -114q0 -2 -1 -11t-3 -23q27 16 47 24.5t29 8.5q71 0 71 -66q0 -39 -66 -87q-7 -4 -8 -4.5t0 -0.5q-2 -1 -5.5 -3t-11.5 -6q98 -42 98 -94 q-3 -25 -20.5 -40.5t-49.5 -19.5q-39 0 -110 35v-55q0 -92 -84 -92q-67 0 -67 92q0 5 0.5 11.5t1.5 15.5q-20 -12 -38.5 -18t-32.5 -8q-29 -3 -46.5 15t-17.5 56z" />
<glyph unicode="+" horiz-adv-x="632" d="M19 689q-3 79 73 85h1q35 1 71 1.5t71 1.5q1 31 1.5 62t2.5 61q-3 94 80 91q80 -1 78 -95v-119l125 -2q94 1 91 -81q-1 -37 -26 -56.5t-68 -20.5q-28 -1 -58 -1h-62v-72.5t1 -67.5q-1 -34 -19 -55t-56 -23q-40 -2 -60.5 15.5t-23.5 56.5v1q-5 72 -6 144q-35 -1 -69.5 -1 h-67.5q-75 -2 -79 75z" />
<glyph unicode="," horiz-adv-x="230" d="M12 242q0 34 31 56q50 35 106 23q67 -14 81 -99q-6 -105 -55 -149t-143 -32q-12 77 52 101q2 2 3 4q-16 3 -31 12l-8 7q-19 20 -27.5 39.5t-8.5 37.5z" />
<glyph unicode="-" horiz-adv-x="632" d="M19 669q-3 80 73 84h1q57 2 114 3.5t113 1.5q51 0 101 -1t101 -3q94 3 91 -80q-1 -37 -26 -56.5t-68 -20.5q-47 0 -99.5 -0.5t-107.5 -1t-109.5 -1t-104.5 -0.5q-74 -3 -79 75z" />
<glyph unicode="." horiz-adv-x="259" d="M14 257q-2 85 29 107l-1 -1q22 18 53 24q12 2 22 3.5t17 1.5q22 1 43.5 -7t38.5 -24t28.5 -41t13.5 -59q0 -18 -7.5 -34.5t-18.5 -30.5t-24 -23.5t-24 -12.5q-17 -6 -42 -7q-31 -2 -46 4q-17 5 -37 21q-16 11 -27 27.5t-17 42.5z" />
<glyph unicode="/" horiz-adv-x="1063" d="M130 -178q-43 37 65.5 261t374.5 634v-1q58 97 117 193t117 193v-1q63 110 128 110q35 0 62 -27l7 -9q10 -19 0 -61.5t-38.5 -104.5t-73.5 -142.5t-104 -174.5q-72 -116 -146.5 -238t-145.5 -238l-81 -126l-63 -98q-23 -36 -40 -62t-27 -42q-58 -88 -135 -78z" />
<glyph unicode="0" horiz-adv-x="899" d="M23 644q0 32 1.5 69t3.5 77q5 73 18 144t33 134q27 88 65.5 146t88.5 84h-1q19 11 48 11q16 0 51 -11q20 -7 36 -9q16 0 39.5 -2t43.5 -4q158 -36 240 -224q67 -150 67 -330q0 -158 -54 -311q-63 -179 -175 -253h1q-47 -32 -97 -32q-2 0 -26.5 5.5t-72.5 16.5l3 -1 q-20 2 -51 10t-75 22q-187 93 -187 458zM189 666q0 -67 8 -125.5t25 -109.5q40 -129 124 -153q84 -25 117 36.5t65 131.5q26 59 39.5 128t13.5 143q0 236 -96 330q-60 111 -106 111q-92 -50 -146 -216q-23 -67 -33.5 -135.5t-10.5 -140.5z" />
<glyph unicode="1" horiz-adv-x="458" d="M79 950q-39 37 11 114q36 54 86 97q97 57 138 46q47 -9 47 -81q0 -11 -1 -24t-4 -30q-2 -73 -8.5 -166t-17.5 -206q-6 -63 -11 -113t-9 -91q-2 -34 -5 -61t-5 -47q-2 -14 -2.5 -26.5t-1.5 -23.5q-3 -23 -4.5 -42.5t-3.5 -32.5q-3 -22 -8.5 -40.5t-15.5 -34.5 q-20 -30 -69 -30q-11 0 -22 1t-23 3q-37 29 -37 80q0 26 6 48q7 29 25.5 195.5t48.5 472.5q-36 -32 -60 -32q-26 0 -54 24z" />
<glyph unicode="2" horiz-adv-x="849" d="M40 266q0 52 133 263q66 103 123.5 182t108.5 135q92 100 92 194q0 82 -66 82q-36 0 -69 -12.5t-61 -35.5q-33 -29 -51.5 -64t-21.5 -73q-1 -20 -1.5 -59t-0.5 -95q0 -24 -6.5 -40t-18.5 -27q-25 -21 -71 -21q-72 0 -84 86q-1 5 -1.5 28.5t-0.5 65.5q0 59 25 142 q13 42 39 83t64 79q80 81 196 83q19 2 38 3.5t37 1.5q114 0 174 -52q36 -33 56 -81.5t20 -111.5q0 -141 -134 -286q-60 -66 -120.5 -149t-119.5 -184l-7.5 -10.5t-7.5 -9.5q-7 -9 -12 -16.5t-12 -18.5q0 -1 -0.5 -2t-1.5 -2q103 18 188 18q68 0 130 -12q175 -36 175 -132 q-81 -49 -93 -52q-19 -3 -45 -3q-27 0 -57 4t-64 12h1q-13 3 -27 5t-29 2q-47 0 -98 -22h1q-30 -14 -60 -20t-58 -6q-15 0 -30 1.5t-30 5.5q-37 3 -82 35l2 -1q-62 41 -62 87z" />
<glyph unicode="3" horiz-adv-x="770" d="M40 1154q0 7 2.5 14t4.5 13q27 31 63 52.5t81 36.5q39 11 77 17.5t77 6.5q126 0 206 -40q126 -60 126 -190q0 -97 -57 -207v1q-35 -68 -101 -103q30 -15 54.5 -34t42.5 -39q63 -74 63 -209q0 -147 -96 -234v1q-90 -85 -230 -85q-113 0 -200 96q-44 51 -62 95.5t-7 85.5 l22 26q22 8 43 8q37 0 70.5 -22.5t63.5 -65.5q26 -35 54.5 -56.5t55.5 -21.5q45 0 67 46q25 43 25 108q0 195 -175 217h1q-69 6 -105.5 19t-41.5 37q-3 13 -4 25.5t-1 24.5q0 56 162 71q60 3 115 45t49 172q0 44 -51 70l1 -1q-50 24 -116 24q-58 0 -116 -39v1 q-74 -53 -95 -53q-14 0 -26.5 8t-22 21t-14.5 28t-5 30z" />
<glyph unicode="4" horiz-adv-x="898" d="M40 463l2 55q44 78 98.5 178.5t115.5 218.5q52 100 89 165.5t61 96.5q51 69 100 111l19 9q14 2 25 3.5t22 1.5q76 0 120 -66l7 -96q-13 -120 -19.5 -242t-6.5 -247v-48t1 -49q10 1 19 1h17q67 0 89 -23l-1 3q42 -37 9 -91q-23 -39 -128 -42q-2 -36 -6 -86.5t-6 -73.5 q-6 -88 -84 -96q-37 -3 -61 12t-31 47q-5 32 -4.5 87t-0.5 102q-97 -8 -162 -11t-100 -3q-7 -1 -15.5 -1h-15.5q-131 0 -153 84zM255 533h2q40 -1 104.5 5t153.5 18l21 536q-18 -32 -46 -90.5t-67 -142.5z" />
<glyph unicode="5" horiz-adv-x="782" d="M40 731v24v27t1 33q1 38 18.5 118t50.5 203v1q27 88 79 100q19 4 57.5 6t95.5 2q93 0 211 -6q98 -5 69 -88q-9 -25 -18.5 -39.5t-23.5 -16.5q-26 -8 -68.5 -12.5t-102.5 -6.5q-87 -1 -113 -6h-2q-4 -20 -17.5 -63t-36.5 -111q-16 -49 -60 -76q23 15 69.5 21t117.5 5 q151 -2 234 -135q80 -127 80 -259q0 -138 -81 -209q-71 -63 -191 -78q-36 -3 -70 -3q-37 0 -71 5.5t-65 15.5q-71 26 -113 66t-42 82q0 16 5.5 32.5t18.5 30.5h-1q11 14 24.5 20t28.5 6q40 0 85 -49v1q46 -50 112 -50q35 0 67.5 10t59.5 28q27 28 43 59.5t16 57.5 q0 65 -45 124q-44 60 -112 75q-14 3 -28 3q-49 0 -108 -41q-29 -29 -66 -29q-40 0 -73 33t-34 72q-1 6 -1 17z" />
<glyph unicode="6" horiz-adv-x="765" d="M43 617v1q-3 157 58 347q75 202 166 251q51 28 115 28q21 0 42.5 -3t45.5 -11q57 -17 97.5 -51t58.5 -81v1q36 -87 36 -159q0 -102 -75 -102q-28 0 -46 6t-28 20t-14 36.5t-4 54.5q0 6 0.5 12.5t0.5 14.5q1 42 -26 75q-27 29 -52 29q-14 0 -32.5 -10.5t-41.5 -34.5 q-36 -37 -76 -119q-13 -27 -22 -71t-14 -104q51 40 126 55q20 5 40 6.5t37 1.5q99 0 181 -56q90 -75 90 -202q0 -118 -98 -243q-109 -138 -202 -148q-10 -2 -22 -2h-24q-31 0 -62 5.5t-59 13.5q-84 26 -138 117q-47 85 -58 322zM243 424q0 -101 61 -132l-1 2q24 -12 43 -12 q49 0 99 68q30 56 48.5 106t27.5 96q1 10 1.5 18.5t0.5 14.5q0 43 -11 53q-27 23 -89 23q-63 0 -104 -33q-39 -30 -75 -172q-1 -6 -1 -15.5v-16.5z" />
<glyph unicode="7" horiz-adv-x="814" d="M51 1093q-11 75 63 107l3 1q64 22 138.5 37t152.5 21q49 4 90.5 6t71.5 2q37 0 59 -3h-1q86 -7 97 -92q2 -21 -0.5 -43t-10.5 -47q-61 -111 -109 -205.5t-87 -175.5q-37 -78 -61 -148.5t-35 -133.5v1l-16 -104t-6 -56q0 -55 -34 -80q-14 -11 -27.5 -16t-31.5 -5 q-14 0 -29 3t-34 8h1q-44 12 -44 88q0 55 23 163q21 103 66.5 221t118.5 255q85 163 86 215q-37 0 -77.5 -3t-79.5 -9q-40 -8 -81 -20t-76 -27q-18 -8 -34.5 -12.5t-29.5 -4.5q-56 0 -66 57z" />
<glyph unicode="8" horiz-adv-x="843" d="M40 415q0 92 34 189q20 52 63.5 108t101.5 108q-30 38 -48 63t-29 45q-34 56 -38 193q-1 75 27.5 126t80.5 76q69 29 152 29q40 0 78 -6h1q98 -15 154 -65t56 -134q0 -80 -60 -181q-24 -42 -55 -81t-71 -77q30 -37 63.5 -80.5t64.5 -85.5q29 -42 54 -89t43 -98l8 -1 q-1 -5 -13.5 -99.5t-164.5 -151.5q-78 -29 -163 -29q-71 0 -146 21h1q-179 46 -192 177q-1 10 -1.5 21.5t-0.5 21.5zM207 467q0 -58 48 -105v1q20 -19 55 -29.5t86 -10.5q11 0 20.5 0.5t21.5 1.5q49 6 86.5 30.5t60.5 72.5q-12 33 -37 69.5t-57 69.5q-44 43 -80 81.5 t-60 64.5q-82 -51 -111 -112q-33 -68 -33 -134zM299 1116.5q0 -8.5 1 -14.5q7 -39 29 -89t63 -106q66 47 98 104t35 130q-1 32 -24.5 57.5t-76.5 27.5q-61 4 -103 -29q-22 -16 -22 -64v-16.5z" />
<glyph unicode="9" horiz-adv-x="794" d="M39 873q-5 186 73 295q84 113 203 125q9 1 20.5 1.5t20.5 0.5q91 0 160 -44l-1 1q42 -26 77 -80t62 -138v1q47 -141 47 -310v-23t-1 -23q-6 -202 -91 -317l1 1q-41 -57 -92 -99t-105 -68q-22 -10 -49 -16t-55 -6q-89 0 -200 52q-37 26 -26 95q8 40 30 56t57 8 q15 -2 33.5 -6.5t41.5 -9.5q7 -2 13.5 -2.5t13.5 -2.5q16 -4 37 -4q28 0 56 13h-1q23 12 48 36.5t55 60.5q56 67 59 147v2q-6 -4 -12 -9.5t-14 -13.5q-63 -63 -145 -63q-46 0 -94 21l-4 2q-215 125 -218 317zM215 892q0 -67 37 -122h-1q49 -67 103 -69q11 0 28.5 10.5 t38 30.5t44 45.5t46.5 55.5q4 19 5.5 35.5t1.5 34.5q0 24 -5 49t-17 49q-59 125 -139 133q-76 -10 -97 -49q-27 -49 -44 -164q0 -10 -0.5 -20t-0.5 -19z" />
<glyph unicode=":" horiz-adv-x="259" d="M8 254q-2 85 30 108l-1 -1q24 19 56 24q22 3 39 3q25 0 44 -6t37 -26q17 -17 28 -43t11 -55q0 -18 -7.5 -35t-18.5 -31t-24 -23.5t-24 -12.5q-10 -3 -19.5 -3.5t-22.5 -1.5t-25 0t-20 2q-9 3 -18 8t-20 12q-32 23 -44 71zM8 642q-2 85 30 108l-1 -1q24 19 56 24 q11 2 21 3t18 1q24 0 42.5 -6.5t36.5 -24.5q17 -16 29 -43t12 -57q0 -18 -7.5 -35t-18.5 -30.5t-24 -23t-24 -12.5q-10 -4 -19.5 -4.5t-22.5 -1.5t-25 0t-20 3q-19 6 -38 20q-32 21 -44 71z" />
<glyph unicode=";" horiz-adv-x="266" d="M24 238q11 71 68 86q42 12 75 5l-1 1q17 -2 31.5 -8.5t25.5 -15.5q15 -11 23.5 -30t12.5 -47t-2.5 -53t-25.5 -49q-25 -64 -40 -98.5t-22 -45.5q-5 -8 -9 -14t-8 -14q-12 -23 -55 -43l-12 -2q-47 5 -47 64q0 23 9 54q40 74 40 109v1q-38 14 -52.5 39t-10.5 61zM25 651 q-1 85 29 108l-1 -1q25 20 56 23q11 2 21.5 3t18.5 1q23 0 42 -6t38 -25q17 -17 28.5 -44t11.5 -56q0 -40 -27 -68q-23 -25 -46 -33q-10 -4 -20 -5t-23 -2q-15 0 -27 0.5t-20 3.5q-16 7 -36 20q-32 21 -44 71z" />
<glyph unicode="&#x3c;" horiz-adv-x="594" d="M47 656q0 35 19.5 76t55.5 86q40 67 80.5 136.5t79.5 136.5q132 174 187 92q28 -16 28 -55q0 -28 -22 -77t-64 -117q-54 -85 -93.5 -149t-56.5 -96l1 1q-6 -11 -6 -20q0 -43 69 -124q69 -88 115.5 -143.5t69.5 -78.5q39 -35 39 -81q0 -38 -29 -79q-12 -15 -26.5 -24 t-33.5 -9q-63 0 -141 133l2 -4q-94 124 -155 201.5t-90 112.5q-29 33 -29 82z" />
<glyph unicode="=" horiz-adv-x="739" d="M16 778q-3 87 80 94h2q68 3 135 4t133 1q61 0 121.5 -1t120.5 -3q108 1 103 -89q-2 -42 -30 -63t-76 -21q-56 0 -119 -0.5t-128.5 -1t-130.5 -1t-124 -0.5q-42 -2 -63.5 17.5t-23.5 63.5zM17 599q-4 85 80 93h2q138 6 274 6q59 0 117.5 -1.5t115.5 -3.5q108 1 103 -89 q-4 -86 -105 -83q-57 -1 -119.5 -1.5t-126 -1t-128 -0.5h-125.5q-83 -6 -88 81z" />
<glyph unicode="&#x3e;" horiz-adv-x="594" d="M57 266q0 46 39 81q23 23 69.5 78.5t114.5 143.5q70 81 70 124q0 9 -6 20l1 -1q-18 33 -55.5 93.5t-95.5 151.5q-85 137 -85 194q0 38 27 55q56 83 188 -92l160 -274l3 -4l-2 3q73 -91 73 -160q0 -49 -29 -82q-29 -35 -89.5 -112.5t-154.5 -201.5l2 4 q-39 -66 -73.5 -99.5t-67.5 -33.5q-20 0 -34.5 9t-26.5 24q-28 40 -28 79zM484 841l1 -2q-1 1 -1 2z" />
<glyph unicode="?" horiz-adv-x="870" d="M6 1203q9 98 31.5 134.5t71.5 132.5q51 97 140 127t192 76q43 18 82 18q68 0 121.5 -51t92.5 -150q24 -64 37 -126.5t13 -124.5q0 -109 -41 -217q-80 -218 -215 -315q-105 -74 -105 -129q0 -16 -2 -64.5t-5 -111.5q-48 -55 -103 -55q-20 0 -45 8.5t-57 27.5q0 11 -0.5 33 t-0.5 33q-1 39 -1 82v71q0 48 26 104t71 113q34 43 73 81.5t81 67.5q125 84 125 262q0 16 -1.5 34.5t-3.5 40.5q-18 252 -73 252q-32 0 -87 -38q-231 -175 -213 -353q0 -13 3 -50q3 -36 3 -57q0 -85 -77 -85q-133 0 -133 229zM175 156q0 22 8 43t23 44q37 51 85 51l61 1 q54 0 95 -53h-1q40 -49 40 -97q0 -56 -51 -101v1q-49 -46 -102 -46q-59 0 -108 49q-50 52 -50 108z" />
<glyph unicode="@" horiz-adv-x="1242" d="M40 400q0 7 0.5 14t0.5 14q3 82 24 162.5t57 160.5q37 81 93 146t126 115q72 48 164 74t198 25q219 -2 303 -86v1q78 -75 133 -172q58 -99 70 -288q-12 -244 -97 -373l1 3q-86 -160 -211 -160q-9 0 -19.5 1.5l-24.5 3.5q-45 20 -79.5 55.5t-55.5 79.5q-98 -198 -197 -211 q22 -18 22 -43q0 -42 -73 -78q-281 33 -364 233q-71 169 -71 323zM203 386q0 -57 14 -115.5t40 -118.5q27 -58 68 -95t93 -52l-10 10l-49 81q0 15 -0.5 34.5t-0.5 33.5q0 204 36 351t102 230q41 48 80.5 73.5t75.5 25.5q38 0 70 -24q5 21 11.5 42t14.5 43q164 -35 151 -146 q-11 -26 -19 -55.5t-12 -64.5q-2 -28 -3.5 -56t-3.5 -55q0 -40 0.5 -82t0.5 -83q-1 -9 -1 -16v-15q0 -117 64 -108q78 0 94 94q38 200 32 278q-4 76 -48 172q-22 48 -52 87.5t-65 68.5q-64 52 -177 52h-15t-16 -1q-69 -4 -129.5 -25t-111.5 -57q-50 -38 -91.5 -90 t-70.5 -117q-61 -135 -71 -266q-1 -10 -1 -17v-17zM513 221q0 -48 14 -67q8 -8 14 -8q23 0 63 56q75 101 83 300v37q0 99 -1 98l-8 -2q-71 -26 -132 -228q-16 -56 -24.5 -104t-8.5 -82z" />
<glyph unicode="A" horiz-adv-x="1368" d="M54 -274q84 44 154.5 118t115 177t112.5 272.5t143 418.5q94 267 161 433.5t105 234.5q87 152 217 156h5q50 0 87 -53q38 -56 49 -167q6 -78 9.5 -199t3.5 -284v-80t-1 -86q-4 -88 -6 -162.5t-2 -140.5q-3 -12 -3 -32q0 -62 28 -203q36 -188 146.5 -272.5t190 -109.5 t129.5 -27q21 8 89 39.5t121 61t115.5 57t128.5 63.5q48 26 92 26q17 0 35 -4q45 -10 45 -23q0 -5 -6 -10q-22 -19 -72.5 -52.5t-159.5 -95t-173.5 -76t-175.5 -32.5q-66 -10 -126 -10q-41 0 -81 5q-96 12 -156 29t-166 105t-149.5 225.5t-46.5 161.5t-5.5 72t-5.5 97 t-6 103q-59 1 -95.5 1.5t-72.5 0.5t-73 0.5t-81 1.5q-5 -17 -10.5 -33.5t-10.5 -33.5q-28 -98 -57.5 -187t-59 -165t-93 -177.5t-161.5 -153.5q-83 -44 -173 -43q-16 0 -32 1q-60 5 -59 21q0 12 37 31zM757 662l255 -6q9 167 13 294t4 219q0 186 5 189q-18 1 -135 -230h1 q-51 -120 -86.5 -235.5t-56.5 -230.5z" />
<glyph unicode="B" horiz-adv-x="1281" d="M40 1302q-18 -10 -26 -10q-7 0 -7 7q1 21 59 104q102 145 240 153q7 0 13 1q126 0 155 -153q184 150 290 158q15 1 31 2q95 0 213 -38q113 -37 113 -219q1 -39 -5 -85q-30 -258 -339 -491q285 -12 354 -234q26 -82 26 -156q-1 -125 -75 -229q-118 -164 -234 -217 q154 -45 230 -69q43 -13 71 -14q21 0 33 8q109 75 244 128q135 52 187 70q26 9 55 9q28 0 58 -8q26 0 26 -9q0 -12 -44 -40q-78 -50 -158.5 -91.5t-160 -62.5t-151.5 -48q-99 -21 -154 -21q-14 0 -24 1q-56 6 -110.5 13t-254.5 43q-264 -52 -400 -52h-21q-136 4 -137 47 q56 199 64.5 256.5t26.5 128.5q14 106 47 422q30 286 30 316l-5 219q0 213 -47 253q-29 25 -55 24q-15 0 -29 -8q-37 -24 -129 -108zM379 24q91 26 152 26q54 0 86 -20q19 -12 45 -13q65 -1 173 77q143 102 143 299q0 13 -1 27q-9 186 -181 185q-30 0 -62 -5 q-232 -36 -301 -115q-31 -215 -48 -309q-10 -57 -10 -100q0 -29 4 -52zM419 -83q-11 -10 -11 -16q0 -7 16 -7h6q38 2 116 20q-33 28 -67 28t-60 -25zM457 750q276 144 360 257t117 295q7 36 7 64q0 88 -67 88q-18 0 -40 -6q-133 -36 -244 -136t-133 -562z" />
<glyph unicode="C" horiz-adv-x="1322" d="M24 525v6q0 175 54 361q54 188 171 365q191 289 328 289h3l49 -5l49 -12l40 -9l10 -5l15 -4q48 -16 91 -34q54 -22 101 -51q162 -98 202 -287q17 -84 17 -182q3 -26 3 -47q0 -75 -34 -74q-41 0 -131 109q-24 121 -36 191t-121 189q-15 40 -56 65q-29 17 -64 17 q-173 -33 -368 -359q-59 -125 -110 -271q-19 -158 -19 -311v-5q0 -214 79 -374q122 -175 241 -215q239 44 336 93q88 80 217 338h3q99 0 100 -51q0 -6 -2 -14q8 -29 8 -56q0 -30 -10 -58q-30 -153 -180 -254q-135 -82 -355 -93q-102 12 -320 89q-153 95 -223 248 q-89 189 -88 411z" />
<glyph unicode="D" horiz-adv-x="1441" d="M48 1362q-20 -11 -28 -11q-5 0 -4 4q0 15 56 83q98 118 234 126q7 0 13 1q124 0 152 -151q180 150 296 174q56 12 102 12q48 0 85 -14q177 -96 273 -412q55 -184 55 -357q0 -124 -28 -241q-68 -282 -184 -444.5t-231 -214.5q151 -46 226 -69q42 -13 69 -13q21 0 33 8 q107 74 240.5 126.5t184.5 70.5q25 9 52 8q28 0 59 -9q25 0 25 -9q0 -12 -42 -40q-76 -49 -156 -90t-158 -61.5t-149 -47.5q-98 -21 -152 -21q-13 0 -23 1q-54 6 -108.5 13t-251.5 42q-259 -51 -393 -51q-11 1 -21 1q-134 4 -173 62q10 79 60.5 187t67.5 178q13 106 45 419 q30 287 30 313l-4 217q0 210 -46 250q-28 24 -53 24q-17 0 -31 -10q-36 -26 -122 -54zM361 39q82 24 142 24q63 -1 101 -27q27 -19 64 -19q62 1 150 55q142 86 176 187l34 101q62 260 66 524v19q0 251 -104 413q-86 134 -151 135q-17 0 -33 -9l-77 -42q-154 -127 -232 -409 l-57 -354q-57 -355 -74 -447q-10 -54 -10 -97q0 -30 5 -54zM417 -62q-11 -11 -11 -16q0 -7 15 -6h7q37 3 114 20q-32 28 -65.5 28t-59.5 -26z" />
<glyph unicode="E" horiz-adv-x="1211" d="M37 99q0 268 241 385q92 44 157 60q-77 16 -141 64q-158 116 -159 325q0 107 45 215q56 138 148 252q74 92 158 149q26 18 50 24l25 2q63 -12 95 -38l16 -11l13 -9l56 -20q162 -105 217 -235q61 -140 61 -358l-2 -44q-14 -102 -36 -101q-29 0 -55 19q-33 27 -33 64v6 l4 33l6 39l2 44q-2 151 -94 275q-18 62 -56 103q-42 45 -81 73q-139 -29 -266 -207q-123 -170 -123 -319q2 -140 117 -215q71 -58 192 -58h4q82 -11 215 -33q20 -7 20 -18q0 -24 -90 -70l-61 -5l-94 -21l-31 -7q-122 -27 -205 -90q-121 -94 -121 -253v-3q0 -129 162 -189 q72 -28 157 -28q41 0 86 7h4q126 0 223 58q145 88 243 148q78 48 134 49q14 0 27 -3q26 -6 26 -13q0 -9 -54 -17q-139 -151 -354 -279q-151 -93 -338 -113q-110 0 -220 36q-108 32 -185 100q-105 97 -105 227z" />
<glyph unicode="F" horiz-adv-x="1293" d="M61 1328q-41 6 -41 25q0 33 126 107q139 116 369 115q110 0 242 -26q161 -43 279 -43q159 0 242 78q52 39 189 53q20 -3 20 -14q-1 -14 -35 -39q-62 -45 -161 -109l1 1q-62 -66 -178 -116q-57 -25 -147 -25q-94 0 -224 26q-24 -451 -35 -628q71 -5 131 -5q261 0 300 96 q24 58 44 59q21 -1 39 -63q11 -40 11 -73q0 -72 -49 -120q-28 -28 -468 -34l-24 -34q-35 -330 -37 -559q-12 -93 -56 -158q-40 -59 -119 -59q-9 0 -18 1q-93 7 -265 84q-95 91 -95 124q0 18 30 19q1 -1 3 -1q89 -2 165 -30q48 -18 96 -18q27 0 55 6q75 16 78 133v174 q0 168 1 310l-183 -13q-149 28 -168 134q46 -1 89 -1q165 0 284 18l22 650q-72 61 -155 61q-20 0 -42 -4q-108 -18 -196 -60q-85 -42 -115 -42h-5z" />
<glyph unicode="G" horiz-adv-x="1346" d="M30 525v6q0 175 56 361q56 188 176 365q197 289 339 289h3l51 -5l50 -12l41 -9l11 -5l15 -4q49 -16 94 -34q55 -22 104 -51q167 -98 208 -241q27 -111 27 -161q0 -43 -19 -43q-21 0 -63 48q-81 93 -93.5 140.5t-123.5 166.5q-17 40 -97 54q-30 17 -66 17 q-177 -33 -378 -359q-62 -125 -114 -271q-20 -158 -20 -311v-5q0 -214 82 -374q124 -175 247 -215q259 26 309 50.5t139 113.5q72 74 72 108q0 7 -4 13q-101 77 -271 87q-139 84 -139 117q0 22 62 22q37 0 97 -8q204 -9 299 -31.5t110.5 -31t17.5 -72.5v-9q0 -59 -19 -107 q-30 -153 -185 -254q-140 -82 -367 -93q-105 12 -330 89q-158 95 -231 248q-91 189 -90 411z" />
<glyph unicode="H" horiz-adv-x="1188" d="M29 -190q-5 26 -5 55q0 93 58 205q116 273 239 380q-5 48 -5 89q0 19 1 35q3 54 8 111q-3 71 -5 139q-2 49 -1 99v40q-7 37 -11 74.5t-9 73.5l-6 136l-3 141q-4 16 -8 32.5t-7 32.5l-1 7q-5 34 -5 60q0 84 52 84q6 0 14 -1l101 -88q23 -200 34.5 -384t11.5 -356v-48.5 v-29.5t-0.5 -29t-7.5 -115q129 128 220 213t114 141l-2 -3q22 81 33 187q10 97 10 216v22v9q0 213 49 219q41 0 98 -62q2 -65 2 -136t-3 -134q-1 -273 -11 -528t-26 -499q3 -188 116.5 -265t178.5 -109t172 -59q19 -7 40 -7q29 0 58 14q51 26 203.5 103t198 98t99.5 25 q11 1 22 1q41 0 71 -13q-58 -56 -121 -93.5t-159.5 -92.5t-190 -72t-164 -22t-138.5 -10h-12q-70 0 -225 49q-120 46 -181 127t-90 221q-14 181 -26 311q-4 43 -4 86q0 85 17 169q-109 -119 -355 -310q-1 -99 -17 -180t-42 -187v1q-57 -240 -202 -292q-30 -6 -56 -6 q-122 0 -122 125zM135 -205q10 2 22 6.5t26 8.5q120 164 168 466q-160 -188 -213 -475q-2 -2 -2 -3t-1 -3z" />
<glyph unicode="I" horiz-adv-x="716" d="M44 976q0 54 10 109.5t28 113.5q32 91 94.5 178.5t155.5 166.5q42 36 77 54t65 18q101 0 113 -177q-21 -183 -41 -331.5t-38 -260.5q-16 -106 -25 -171t-11 -99q13 -16 38.5 -36t67.5 -47q53 -115 53 -153q0 -19 -13 -20q-7 0 -17 5q-70 33 -92 48t-54 34l-3 -30 q-6 -77 -9 -141.5t-3 -115.5q0 -20 0.5 -37.5t1.5 -33.5q4 -103 59 -209q13 -12 19 -12q12 0 89 23q44 75 136 175q11 -22 11 -47q0 -73 -92 -171q-124 -132 -221 -132h-5q-43 0 -109 102q-34 104 -34 401q0 38 0.5 79.5t1.5 86.5q2 23 2.5 59t2.5 83v23q-122 75 -172 154.5 t-70 164.5q-8 35 -12 72.5t-4 73.5zM209 1014q0 -85 36 -182q32 -88 72 -141q18 212 97 527q20 83 31.5 142t12.5 95q-94 -95 -155 -181.5t-79 -149.5q-7 -28 -11 -55t-4 -55z" />
<glyph unicode="J" horiz-adv-x="823" d="M24 1120q35 409 377 458q7 3 13 3q101 0 101 -748q0 -282 -14 -669q196 -153 270.5 -220.5t162 -107.5t142.5 -50q12 -2 25 -2q44 0 93 25q64 32 267 118q77 52 158 52q37 0 75 -11l-62 -54q-99 -64 -181.5 -105.5t-238.5 -66.5q-107 -17 -184 -17q-36 0 -65 3 q-93 12 -191 92t-159.5 135.5t-117.5 86.5v-29q0 -60 3 -76q3 -9 3 -31q0 -24 -3 -63q-9 -239 -149 -239q-19 0 -41 4q-207 52 -205 253l2 26v8q0 47 41 111q46 71 195 157q-170 53 -207 88.5t-87 163.5q-36 186 -36 416q0 137 13 289zM182 996q1 -30 1 -52v-16 q-5 -170 -5 -289q0 -219 18 -265q27 -73 35.5 -82.5t137.5 -21.5q2 27 2.5 100.5t9.5 420.5q-23 540 -48 631q-107 -73 -149 -350v1q-3 -23 -3 -50q0 -13 1 -27zM233 -149q-1 -6 -1 -13q0 -66 84 -143h2q27 0 53 236q3 31 3 66q0 21 -1 43q-116 -82 -128 -125 q-4 -17 -7.5 -32.5t-4.5 -31.5z" />
<glyph unicode="K" horiz-adv-x="1176" d="M129 -303q27 16 125 99q61 92 121 310t98 507l20 251q5 51 17 187q9 97 9 211q0 46 -1 94q-8 71 -50 71q-10 0 -20 -3q-60 -19 -184 -105q-38 -26 -54 -26q-11 0 -10 13q0 27 51 114q102 172 253 171h22q166 -13 184 -315q-14 -303 -37 -484q125 86 188 263.5t94 279.5 q74 239 217 239q45 0 97 -24q39 -58 39 -81q0 -16 -18 -16q-10 0 -26 5q-72 -46 -180 -203v1q-46 -124 -127.5 -327.5t-222.5 -288.5q78 -102 132 -243t82 -175q90 -233 141 -294.5t110 -87t177 -59.5q19 -7 38 -7q24 0 46 12q40 22 178 90q139 66 215 104q75 37 101 38 q26 0 85 -4q9 1 15 1q12 0 13 -5q1 -14 -69 -60q-114 -74 -214.5 -132t-185 -70.5t-186.5 -27.5q-48 -7 -95 -7q-54 0 -107 9q-86 18 -116 27t-144 68l61 -37q-142 54 -239 307q-85 273 -144 386v2q-57 -229 -67 -292t-42 -200q-34 -146 -94 -231.5t-145 -106.5 q-162 -40 -219 -40q-31 0 -31 12q0 21 99 80z" />
<glyph unicode="L" horiz-adv-x="1118" d="M22 -30q-1 7 -1 15q1 31 17 61q20 38 62 76q63 52 142 63q18 2 36 2q76 0 162 -34q12 97 26 280t15 275q-157 7 -240.5 59.5t-118 96.5t-88.5 174q86 -44 150 -106q64 -64 146 -74q19 -2 38 -2q66 0 143 27q31 304 167 522v-1q69 125 262 154q28 -77 47 -127.5t28 -124.5 l2 -24q0 -40 -13 -88q4 -20 4 -39q0 -36 -13 -74q-20 -58 -59 -128t-106.5 -129t-180.5 -84q0 -89 -11 -228.5t-16 -195.5t-10.5 -113t-11.5 -117q101 -66 172 -101.5t138.5 -79.5t161.5 -81q92 -38 136 -50q12 -3 24 -3q32 0 66 24q133 60 216 105.5t161 79.5q70 30 98 29 h6q25 -4 55 -8q24 -3 24 -10q0 -1 -1 -3q-7 -10 -61.5 -44t-119 -74t-125.5 -74.5t-152 -48.5t-143 -21q-52 -8 -88 -10q-6 0 -12 -1q-38 0 -116 12q-92 14 -155.5 44t-165.5 82.5t-164 76.5q-36 -72 -86.5 -110t-116.5 -46q-18 -2 -37 -2q-119 0 -228 91q-58 49 -65 107z M126 23q37 -91 151 -119q18 -4 34 -4q8 0 15 1q30 4 47 26t24 71q-108 72 -176 72q-7 0 -13 -1q-36 -5 -82 -46zM669 894q217 141 224 277q13 47 13 96q0 64 -22 129q-9 9 -20 9q-15 0 -31 -19q-28 -32 -61 -117.5t-67 -136.5t-36 -238z" />
<glyph unicode="M" horiz-adv-x="1651" d="M33 1263q41 63 150.5 165t192.5 116q40 7 75 6q37 0 69 -8q62 -14 86 -133l-6 -222q279 319 365 319q43 0 64 -46q15 -15 19.5 -45t4.5 -80q0 -27 1.5 -32t2 -11.5t-1.5 -27t-8 -76.5q201 168 269.5 247t114.5 79q54 0 78 -65q8 -19 12.5 -52.5t4.5 -82.5 q0 -174 -45 -568v3q-7 -131 -14.5 -262t-13.5 -261q-16 -64 -16 -119q0 -70 26 -125q47 -99 113 -131t125 -50.5t89.5 -25.5t54 8t163.5 85.5t226 114.5q80 41 131 41h7q52 -4 70 -8q7 -2 7 -6q0 -7 -18 -22q-29 -24 -111.5 -73.5t-154 -94.5t-138.5 -60q-67 -16 -185 -32 q-84 -12 -134 -11q-20 -1 -35 1q-52 6 -103 17t-134 39t-142 148q-21 68 -21 245q0 148 15 375t86 651q-125 -125 -188.5 -233.5t-110 -235.5t-70 -259t-37.5 -281q4 -200 49 -369q-30 -9 -56 -9q-106 0 -150 147q-7 26 -11 71t-4 112q0 135 14.5 359t72.5 662 q-332 -362 -377 -1361q-43 -55 -83 -55q-43 0 -67 70q5 118 12 266t15 326q3 55 5.5 110.5t5.5 113.5v-1q4 123 6.5 208t4.5 148t19 161q9 50 9 94q0 41 -8 75q-13 58 -66 59q-12 1 -26 -3q-76 -16 -204 -94q-74 -40 -96 -40q-9 0 -9 7t9 22z" />
<glyph unicode="N" horiz-adv-x="1171" d="M29 1282q64 78 157 182q91 102 193 102h4q104 -2 156.5 -39.5t89.5 -143.5l-7 -212q155 167 232.5 245t129.5 78t78 -49q26 -34 26 -119q0 -60 -8.5 -153t-25.5 -220v2q-17 -195 -34.5 -389t-33.5 -389q-7 -39 -7 -80q0 -60 15 -124q26 -107 158 -155q117 -43 158 -43 q6 1 10 1q36 6 131 56t247 124q152 76 194 78h14q34 0 64 -11q12 -4 13 -11q0 -14 -50 -38q-74 -36 -209 -123t-203.5 -99t-167.5 -41q-58 -6 -108 -6q-79 0 -136 15q-170 61 -221.5 100.5t-85.5 126.5q-19 49 -19 185t17 357.5t98 697.5q-344 -249 -381 -1386 q-31 -34 -56 -50t-49 -16q-54 0 -80 71q4 79 9.5 173.5t11.5 201.5q10 195 24 437v-1q5 123 8 207.5t5 148t13 150.5t13 161v5q0 69 -46 94q-25 14 -52 14q-23 1 -47 -11q-49 -24 -163 -133q-50 -48 -72 -48q-15 0 -15 26q0 18 8 51z" />
<glyph unicode="O" horiz-adv-x="1444" d="M32 555l6 181q0 258 159 510q206 294 396 294h23q198 -13 215 -102h23q156 0 272 -113q142 -112 238 -374q34 -181 34 -249t-11.5 -153t-25 -136t-51 -153t-94 -186.5t-73.5 -101.5t-119 -85l-170 -91q-80 -11 -159 -11q-30 -2 -59 -2q-290 0 -417 183l-68 102 q-113 214 -119 487zM242 521q0 -132 45.5 -264.5t126 -229t172.5 -142.5q28 -14 61 -14q73 1 171 75q140 106 274 344q55 95 90 503q0 398 -283 543q-18 1 -35 1q-88 0 -158 -30q-69 -29 -125 -29q-12 0 -24 1q81 111 170 138l-139 -41q-190 -140 -255 -334q-31 0 -91 -363 v-158z" />
<glyph unicode="P" horiz-adv-x="1176" d="M11 1316q21 72 119 171q100 71 192 72q20 -1 40 -5q109 -20 124 -131l6 -155q232 279 390 279q147 0 212 -227v-65q0 -517 -338 -671q-51 -16 -92 -29t-75 -23t-62.5 -19t-52.5 -15q-22 -69 -31.5 -135t-24.5 -112q-9 -106 -12.5 -152.5t-7.5 -177.5v-14q0 -89 -73 -113 q-79 -26 -172 -43q55 101 68 222.5t30 302.5l-1 -3q13 125 19.5 216t7.5 151l27 157l-1 -6q6 110 20 270.5t19 269.5v2q3 3 -8 45q-11 41 -68 42h-1q-58 0 -164 -99q-57 -40 -79 -40q-14 0 -14 16q0 8 3 19zM477 666q200 29 322.5 146t163.5 285q18 75 18 132q0 71 -28 115 q-39 60 -78 60l-24 -6q-51 -24 -196 -144t-178 -588z" />
<glyph unicode="Q" horiz-adv-x="1555" d="M46 -136q0 64 147 181l23 23q-136 214 -136 487v181q0 258 159 510q206 294 396 294h23q198 -13 215 -102h23q156 0 272 -113q142 -112 238 -374q34 -181 34 -249t-11.5 -153t-25 -136t-51 -153t-94 -186.5t-73.5 -101.5t-119 -85q0 -47 283 -125q308 158 399 203.5 t156 45.5h34l57 -11q-37 -53 -205.5 -145.5t-291 -121t-262.5 -28.5q-154 0 -340 91q-80 -11 -159 -11q-320 85 -476 181q-93 -36 -158 -113l-57 -12v23zM284 521q0 -132 11 -182q23 -107 80 -215l136 23h101q284 -75 329 -164q283 379 283 810q0 398 -283 543l-136 23h-23 q-55 -12 -84 -12q-31 0 -31 15q0 8 10 22l16 16l-69 -30q-184 -134 -249 -328q-31 0 -91 -363v-158zM454 11q93 -113 181 -113h57q-109 113 -215 113h-23z" />
<glyph unicode="R" horiz-adv-x="1224" d="M60 1285q-19 -8 -29 -8q-12 0 -12 11q0 26 62 112q105 145 229 146q9 0 18 -1h5q79 0 128 -134l49 -113q254 287 430 295h12q167 0 249 -219q2 -15 2.5 -32t1.5 -31q1 -27 1 -54q0 -474 -424 -643l-29 -9q245 -49 246 -304q21 -144 40 -266q66 -159 143 -193 q46 -20 76 -20q20 0 34 9q206 15 294 55.5t120 66.5t69.5 35t82.5 14q19 2 33 2q37 0 37 -12q0 -7 -14 -20q-46 -39 -99 -68.5t-164 -114.5q-116 -55 -260 -55q-37 0 -75 4q-188 18 -260.5 62t-122.5 124t-110 299l-1 30q-3 100 -83 162q-59 46 -167 46q-38 0 -82 -6l1 -31 q1 -14 1 -29q0 -27 -2 -57q-4 -48 -13 -112l-18 -221v-54v-55l-18 -95l-32 -2l-12 -1q-10 -1 -20 -1q-85 0 -85 119q0 32 6 71q-1 32 -1 82v53q1 88 16 169q8 117 12 213q3 64 3 112q0 24 -1 43l23 152v215q0 35 1 71q0 71 -1 143q-2 86 -36 137q-21 32 -55 32 q-19 0 -43 -12q-64 -31 -156 -112zM517 620q479 62 572 698q-34 102 -64 102q-3 0 -7 -1q-478 -153 -501 -799z" />
<glyph unicode="S" horiz-adv-x="1180" d="M25 154v8q0 43 20 44q32 0 114 -111l18 -30q99 -140 298 -163q145 20 303 70t158 123l-1 52q-23 109 -232 151q-96 21 -162 52q-152 34 -221 98q-85 30 -174 142q-77 119 -77 252q0 26 3 53q-2 29 -2 58q0 237 133 428q73 122 141 167q41 38 110 38h4q40 -1 73 -12 l35 -18l25 -12l19 -4l27 -7q100 -24 183 -77q222 -144 240 -327l-3 -138l-5 -49q-20 -145 -66 -145q-12 0 -26 10q-33 33 -52 125l-3 29l3 41l7 62l2 62q-89 292 -314 292q-147 -3 -229 -196q-89 -173 -112 -335q25 -250 164 -354q78 -61 155 -83l225 -51q84 -21 153 -49 q156 -68 159 -215q0 -111 -98 -206q-74 -74 -176 -109q-131 -49 -275 -49h-6q-202 0 -298 73q-235 105 -240 310z" />
<glyph unicode="T" horiz-adv-x="972" d="M79 1337q-44 2 -44 23q0 34 113 119q153 161 460 160q63 0 134 -6q182 -44 298 -44q143 0 187 67q59 71 168 105q25 -1 25 -16q0 -14 -20 -40q-42 -54 -100 -125l1 1q-55 -73 -163 -137q-76 -45 -200 -45q-52 0 -113 8v-66q0 -506 -29 -868q-2 -37 -13.5 -168t-26.5 -209 q-14 -76 -58 -156q-42 -77 -142 -77h-8q-106 3 -207 35q-71 59 -71 87q0 20 37 23q39 3 68 3q37 1 57 -5q10 -3 20 -3q27 -1 54 19q37 26 49 139q31 130 37 196t17 144q12 238 12 537q0 189 -5 402q-89 46 -166 46q-36 0 -69 -10q-105 -32 -188 -83q-86 -56 -114 -56z" />
<glyph unicode="U" horiz-adv-x="1217" d="M42 1298q32 40 112 127q78 87 178 105q26 5 49 5q65 1 107 -39q56 -54 56 -191q0 -26 -1.5 -55t-9.5 -59q-16 -78 -24.5 -209t-8.5 -314v-45q-23 -218 -23 -352q0 -51 3 -89q12 -140 87 -280q11 -4 24 -4q42 0 95 45q78 78 119.5 269t57.5 389q16 206 31 420t31 420 q13 94 50 94h5q25 0 61.5 -10t76.5 -128l-1 -558q-8 -194 -15.5 -321t-17.5 -189l-14 -58q14 -177 46 -292q167 -189 309 -188q75 0 143 52q183 141 312 141q10 0 20 -1q17 2 29 2q25 0 24 -10q0 -26 -153 -119q-244 -146 -384 -154q-10 -1 -21 -1q-132 0 -282 90 q-162 97 -215 185q-30 -60 -75 -102.5t-107 -65.5q-27 -11 -54 -16t-53 -5q-140 0 -232 133q-96 141 -96 451v44t2 45q7 182 15.5 417.5t65.5 464.5q-20 32 -50 32q-26 0 -58 -24q-70 -52 -158 -72q-28 -6 -45 -7q-20 0 -20 10q1 6 9 17z" />
<glyph unicode="V" horiz-adv-x="1542" d="M18 1241q50 169 239 268q92 48 195 48t179 -51q191 -122 225 -557l14 -227l14 -255l15 -221q43 -322 109 -322q18 0 37 23q69 2 103 278q48 134 85 294q95 406 95 699q0 96 2 212q-2 20 -2 37q0 98 55 99q5 0 10 -1q75 -11 90 -132q10 -85 11 -183q-1 -356 -106 -803 q-65 -279 -107 -388q-49 -184 -254 -286q-127 0 -207 151q-111 118 -130 268q-16 108 -20 246l-12 286q-8 157 -19 276q-5 137 -34 224q-50 149 -154 149q-22 0 -46 -7q-124 -2 -262 -131q-86 -80 -118 -80q-19 0 -18 28q0 21 11 58z" />
<glyph unicode="W" horiz-adv-x="1834" d="M13 1200q33 168 113 252.5t235 102.5h6q231 0 260 -146q45 -161 45 -340q0 -76 -8 -155q1 -72 1 -172v-106v-71q0 -132 3 -188q4 -131 19 -270q25 -115 84 -171q73 0 93 188q10 46 51 286q34 172 53 543q7 131 7 202q0 24 -1 41l-7 49l54 152q31 9 55 10q5 1 10 1 q117 0 118 -346q0 -50 -3 -107q13 -417 64 -752q29 -193 97 -261q154 40 154 414q0 80 -7 175q4 167 4 325q0 193 -6 374q-1 74 -1 126q0 87 3 116q48 66 134 117q49 -35 49 -281q0 -31 -1 -66q-33 -372 -54 -828q-1 -586 -284 -638h-6q-187 0 -254 311q-26 115 -26 381 q0 91 3 199q-30 -377 -57 -523.5t-87 -263.5q-44 -62 -168 -122h-8q-114 0 -188 116q-59 93 -78 230q-23 51 -27 182q-4 110 -4 255l-2 278q24 166 24 283q0 237 -100 269q-21 10 -46 10q-27 0 -56 -12q-81 -33 -260 -169z" />
<glyph unicode="X" horiz-adv-x="844" d="M35 -120q17 64 17 84v38q40 110 85.5 231t109.5 340q-15 67 -30.5 138.5t-31.5 149.5q-5 16 -7 30t-5 30q-20 94 -59 179q-40 84 -56 222q-7 61 -7 97q0 47 12 55q21 14 73 20h1q51 0 142 -334v2q21 -61 33.5 -94.5t21.5 -58.5t16.5 -49.5t38.5 -131.5q46 118 89 197.5 t70 159t55.5 166.5t59.5 178q8 4 16 4q47 0 93 -139q-90 -354 -150.5 -519.5t-124.5 -328.5q81 -347 119 -481t90 -187t116.5 -65.5t158.5 -32.5l35 -3q19 3 44 16t184 100q32 22 109.5 72t155.5 57l59 -5q-54 -64 -124.5 -114.5t-111.5 -77.5t-257 -83q-133 -34 -239 -34 q-66 0 -122 14q-144 34 -194 160q-14 34 -22.5 56t-18 47.5t-58 128.5t-69.5 167q-26 -81 -54 -167t-76 -325q-94 -44 -144 -44q-58 0 -58 59q0 30 15 76z" />
<glyph unicode="Y" horiz-adv-x="1050" d="M32 1207q-5 8 -5 18q0 26 29 71q42 62 113 140.5t144 104.5q43 15 87 15q30 0 61 -7q56 -13 56 -128q0 -39 -6 -88q5 -13 5 -44v-25q-3 -51 -10 -108q-4 -36 -4 -69q0 -40 6 -77q10 -68 10 -127q0 -148 10.5 -259t29.5 -127q3 -2 7 -2q43 0 159 253q55 177 59 298t14 375 q32 93 81 99h6q46 0 96 -77q-35 -123 -40.5 -293.5t-16.5 -276.5t-22.5 -189t-68.5 -321q96 28 160 62t111.5 38.5t116.5 21.5q-61 -75 -106 -112.5t-100 -66.5t-183 -77q-105 -551 -309 -620q-13 -9 -48 -9q-4 -1 -9 -1q-30 0 -60 3q-188 54 -188 197q0 18 3.5 37.5 t12.5 41.5h-1q64 227 429 412q9 120 14 142q-93 -113 -165 -113q-11 0 -21.5 1t-22.5 4q-46 45 -76.5 153.5t-42.5 282.5q-10 96 -10 180q0 26 1 50q4 106 18 270q2 27 2 48q0 89 -38 89q-10 0 -22 -5q-71 -32 -160 -122q-69 -69 -95 -69q-7 0 -11 6zM358 -198 q4 -48 64 -100q41 -36 60 -36q8 0 12 7q59 59 103 175t77 301q-253 -146 -287 -223q-30 -67 -30 -112q0 -6 1 -12z" />
<glyph unicode="Z" horiz-adv-x="897" d="M-6 1315q82 105 146 143q33 19 67 19q33 0 68 -18q25 -10 47.5 -16t43.5 -6q36 0 205 22q101 51 158 57q10 1 20 1q71 0 95 -80q3 -10 3 -26q0 -96 -111 -404q-59 -121 -117 -254t-116 -278q-99 -219 -143 -310t-66 -137q-5 -11 -6 -20q0 -20 32 -20q8 0 18 1q12 1 24 1 q60 0 140 -30q98 -37 204.5 -81t142.5 -75q98 12 221.5 88t240.5 109q146 -10 146 -41q1 -16 -41 -37q-118 -62 -314 -127l-195 -65q-53 -15 -101 -15q-69 0 -125 31q-63 43 -169.5 56t-149.5 13q-23 0 -56.5 -7.5t-71.5 -20.5q-28 -10 -52.5 -15.5t-43.5 -5.5 q-104 0 -104 110q0 16 4.5 40t11.5 51q32 100 136 308t195 406l-1 -2q75 178 129 297t83 180h1q16 32 29.5 62t23.5 58q-95 -20 -160 -20q-99 0 -129 46q-61 0 -155 21q-89 -27 -143 -27q-44 0 -65 18z" />
<glyph unicode="[" />
<glyph unicode="\" horiz-adv-x="1063" d="M62.5 1113.5q-10.5 42.5 0.5 61.5l6 9q27 27 62 27q64 0 129 -110l-1 1q58 -97 117 -193t118 -193v1q546 -846 436 -897l-8 -6t-6 -4q-77 -10 -135 78q-10 16 -27 42t-40 62l-63 98l-81 126l-291 476q-60 94 -105 174.5t-73 142.5t-38.5 104.5z" />
<glyph unicode="]" />
<glyph unicode="^" />
<glyph unicode="_" horiz-adv-x="1812" d="M98 93l1 20q10 56 257.5 80t736.5 10l-1 -1q113 1 225.5 0.5t225.5 0.5l-1 -1q127 4 161 -52q18 -30 9 -67l-4 -11q-11 -18 -52.5 -31.5t-109.5 -21.5t-160 -11.5t-203 -1.5q-136 1 -279 1.5t-279 0.5q-84 2 -150.5 3.5t-116.5 3.5q-42 1 -73 2t-50 1q-106 4 -137 75z " />
<glyph unicode="`" />
<glyph unicode="a" horiz-adv-x="626" d="M-13 282q1 15 0.5 33.5t0.5 31.5q3 216 37.5 370t94.5 240q35 48 70 75q34 26 65 26h2q34 -1 61 -29q5 24 11.5 47t15.5 45q127 -33 128 -124q0 -9 -2 -18q-12 -28 -18.5 -60.5t-11.5 -70.5l1 2q-4 -30 -6.5 -61t-10.5 -137q-1 -43 -1 -86.5t-2 -86.5v-17t2 -75t24 -88 q5 -5 12 -5q22 0 64 52q54 68 104 148q29 -18 47 -80q-15 -86 -81 -154q-65 -70 -124 -90q-29 -10 -57 -10q-29 0 -57 11q-20 23 -50 198q-47 -113 -93 -167q-44 -52 -92 -52h-4q-44 0 -91 52zM123 358q-1 -7 -1 -11q0 -20 8 -21q6 0 16 10q26 28 50 62q77 107 91 312 q-1 8 0 17.5t3 18.5q3 103 10 108l-8 -4q-92 -19 -135 -214q-14 -60 -20.5 -110t-8.5 -90q-1 -28 -5 -78z" />
<glyph unicode="b" horiz-adv-x="641" d="M-33 306q-1 13 -1 28q0 25 2 53q4 44 12 99l-1 -1q44 249 43 351v2v16q0 58 -5 239q-6 212 -13 253q-2 23 -4 50.5t-3 62.5v60.5t7 132.5q119 -19 135 -97q21 -168 26 -335q2 -73 2 -136q0 -82 -4 -150q-6 -120 -6 -143q104 150 252 154q97 -18 107 -131q2 -24 3 -49 q-1 -95 -29 -209q-36 -144 -155 -306h5q76 0 148 63q74 65 152 217q12 25 20 25q16 0 21 -93q-9 -97 -116 -217t-335 -122h-20q-211 0 -242 43q-17 23 -17 59q0 34 16 81zM138 286q113 19 152 96t56 120q16 42 32 127q12 68 13 111q0 10 -1 20q-3 39 -27 40q-4 0 -10 -2 q-33 -8 -58 -35t-57 -87t-47 -126t-35 -132q-19 -63 -18 -126v-6z" />
<glyph unicode="c" horiz-adv-x="470" d="M-38 532q-2 24 -2 48q0 198 116 322q121 130 195 131q5 -1 9 -1q76 -8 153 -107q1 -12 1 -23q0 -82 -40 -104q-22 -12 -40 -12q-20 0 -35 13q-19 0 -19 15q0 7 11.5 44.5t11.5 39.5q0 9 -10 9q-47 0 -151 -137q-56 -108 -57 -186q0 -12 2 -23q10 -84 23 -151t63 -116 q22 -21 50 -21q37 -1 84 35q84 64 146 209l33 -70q1 -49 -18.5 -89.5t-53.5 -83t-86 -74.5t-136 -38q-6 0 -11 -1q-79 -1 -149 67q-76 72 -90 304z" />
<glyph unicode="d" horiz-adv-x="819" d="M-9 438q-2 30 -2 64q1 92 15 206q20 155 76 248q72 111 146 117q22 2 38 -2t34 -18q2 9 2 17.5t1 17.5v-1q2 61 14 221.5t16 220t7.5 115.5t5.5 104q19 3 36 3q107 0 149 -107q-7 -44 -26 -255.5t-31 -392.5l-11 -116l1 3q1 -29 2 -59t3 -60q3 -42 7.5 -86t9.5 -86 q1 -10 1.5 -19.5t1.5 -18.5q15 -130 45 -205q30 -74 94 -74q1 1 3 1q67 2 192 222q10 6 18 6q26 0 26 -64q0 -13 -1 -28q-31 -76 -67 -124.5t-82 -83.5q-47 -34 -115 -46q-19 -3 -35 -3q-45 1 -79 23q-46 30 -70 97t-50 111q-37 -113 -84 -172q-46 -60 -100 -64h-9 q-50 0 -105 44q-15 10 -42.5 69.5t-34.5 174.5zM135 462q1 -48 10 -81q6 -22 14.5 -39t21.5 -24q4 5 12 18.5t21 31.5l1 -1q36 59 41 137t16 156q3 20 3 43q0 71 -25 177l-29 -5q-69 -50 -82 -307v1q-4 -50 -4 -91v-16z" />
<glyph unicode="e" horiz-adv-x="477" d="M-12 566q60 504 252 528q150 -59 150 -214q0 -195 -52 -301.5t-173 -162.5q0 -25 18.5 -88t56.5 -69q3 -1 8 -1q36 0 96 57q66 62 134 184l37 -74q3 -8 3 -17q0 -28 -22 -72q-30 -58 -92 -118q-60 -58 -158 -68l-30 -2q-77 0 -124 44q-56 52 -75.5 114t-28.5 260z M139 617q0 -88 13 -88t63 112.5t50 263.5q0 76 -12.5 76t-63 -138t-50.5 -226z" />
<glyph unicode="f" horiz-adv-x="548" d="M-18 304q4 98 14 233v-1q3 72 30 314t35 291v-2q8 53 18 124t24 159l27 112l3 8q55 108 131 109h1q78 0 140 -205q9 -32 11 -67v-16q0 -108 -58 -417q-64 -332 -140 -530q23 -97 53 -122q28 -25 58 -25q1 0 3 1q31 1 94 64t138 187l24 -8l18 -92q-54 -101 -100.5 -159 t-103.5 -87q-41 -21 -81 -21q-14 0 -29 3q51 -92 56 -194q1 -17 1.5 -33t-0.5 -31v1q-11 -133 -21 -171v1q-5 -23 -39 -64.5t-95 -100.5q-12 -2 -24 -2q-124 0 -159 227q-9 65 -16 123.5t-10 114.5q-1 29 -1.5 56.5t0.5 53.5q-3 39 -3 90q0 35 1 76zM106 9q6 -65 13 -122 q4 -35 31 -93q16 -33 12 -33q-3 0 -18 20q14 -1 27 -1q56 0 63 30q7 28 7 58q0 10 -1 21q-5 94 -131 265q-5 -48 -5 -91q0 -28 2 -54zM135 646q3 -26 2.5 -33t4.5 -62q67 109 113 407q24 157 24 265q0 99 -20 158q-79 -76 -92.5 -208.5t-31.5 -526.5z" />
<glyph unicode="g" horiz-adv-x="723" d="M-19 384q0 108 33 258.5t97 249.5q78 119 151 119q37 0 66 -27q8 49 25 101q148 -38 148 -145q0 -9 -1 -18q-21 -61 -30 -148q-2 -35 -3.5 -68.5t-3.5 -67.5q0 -24 0.5 -48t0.5 -47q-2 -38 -3 -74.5t-1 -70.5q0 -55 2 -101t5 -72q54 22 118 87.5t138 186.5l41 -88 q-7 -78 -112.5 -177t-179.5 -161q-24 -365 -163 -447q-65 -38 -122 -38q-78 0 -136 67h1q-27 29 -27 73q0 132 279 409q5 76 6 128q-90 -164 -201 -164q-31 0 -78 20q-49 116 -49.5 135.5t-0.5 127.5zM92 351q0 -59 21 -89q9 -14 13 -14q26 0 80 80q98 151 106 375v-1 q0 11 0.5 21t0.5 21q0 102 3 104l-10 -6q-48 -16 -91.5 -86.5t-80.5 -185.5q-22 -65 -32 -121t-10 -98zM148 -302q20 -9 38 -9q22 0 45 16q47 33 79 137q12 34 19 71t15 78q-93 -74 -150 -176q-20 -38 -32 -66.5t-12 -47.5q0 -1 -2 -3z" />
<glyph unicode="h" horiz-adv-x="622" d="M-24 332q-1 36 0 69q0 43 1 81q1 28 3.5 55.5t4.5 52.5q2 76 2 187t24 260l-1 -2q-7 48 -7 90q0 35 5 65q3 23 3 49q0 49 -12 108l9 -26l-1 158q0 49 23 145l35 121l3 7q60 107 125 107h8q37 -6 64.5 -64.5t46.5 -174.5q4 -26 4 -54v-12q-8 -214 -146 -743 q138 168 215 168q22 0 39 -14q20 -21 20 -77v-10q-1 -34 -6.5 -79.5t-17.5 -105.5v1l-40 -286q-7 -46 -8 -78q0 -68 35 -68q13 0 31 10q86 48 186 232q11 5 20 5q32 0 32 -66q0 -15 -2 -34q-37 -94 -101.5 -161.5t-130.5 -81.5q-34 -7 -65 -6q-29 0 -57 6q-56 13 -70 118 q-8 35 -8 68.5t8 65.5q15 64 17.5 87.5t6 51.5t28.5 139q-105 -79 -143 -232t-63 -287l-109 -33q-9 104 -11 188zM91 1059q56 134 81 265q15 78 15 200q0 83 -7 186q-74 -197 -74 -358v-6q1 -98 1 -162v-69q-4 -13 -8 -27.5t-8 -28.5z" />
<glyph unicode="i" horiz-adv-x="361" d="M-16 478v74q13 77 18.5 190.5t14.5 150.5q2 13 4 29t3 29l20 61q91 -6 107 -21t10.5 -60.5t-15.5 -179.5q-9 -122 -10 -154q0 -3 1 -5q1 -25 -7 -57q-3 -43 -3 -86v-22v-18t1 -16q14 -122 39 -131q6 -1 11 -1q74 0 191 234q28 -28 43 -99q-39 -111 -74.5 -157t-76 -69.5 t-138.5 -39.5q-93 9 -116 80q-9 27 -16 111.5t-7 156.5zM78 1163q10 -2 20 -2q35 0 62 31l12 82q-11 42 -42 42q-21 0 -52 -19q-8 -46 -8 -80t8 -54z" />
<glyph unicode="j" horiz-adv-x="376" d="M-243 -266q16 128 244 426q10 88 14.5 113t4.5 38t-3 58t-8 123l-18 270l2 15q49 139 99 139q68 0 69 -236q5 -54 9.5 -108.5t8.5 -108.5l-18 -214q54 32 109.5 89t105.5 160l45 -79q-12 -77 -86.5 -158t-186.5 -155q-3 -337 -84.5 -430.5t-156.5 -96.5q-152 0 -152 128 q0 13 2 27zM-142 -339q5 4 12.5 6t14.5 5q84 42 130 198l45 155l-83 -122q-84 -124 -114 -217h1q-1 -9 -1 -14.5t-5 -10.5zM-16 1052q12 -3 24 -3q41 0 74 37l14 98q-13 50 -51 50q-25 0 -61 -23q-10 -55 -10 -95t10 -64z" />
<glyph unicode="k" horiz-adv-x="685" d="M-16 173q-6 14 -6 63q0 90 20 300q2 33 4 68t6 66q5 89 6.5 220.5t17.5 301.5l-1 -1q-1 28 -1 55q0 64 6 118q10 76 26 138v-1q-5 41 -5 72q-1 27 3 49q8 46 12 65l2 14q11 134 92 157q13 4 23 4q48 0 48 -73v-20q0 -31 11 -73q4 -17 4 -37q0 -33 -12 -71 q-11 -120 -33.5 -272.5t-40.5 -334.5q-3 -30 -6 -58t-7 -58q215 230 312 230h6q22 -1 34 -41q39 -2 39 -72v-10q-1 -18 -4 -40t-8 -46q-25 -134 -60 -220t-80 -122q-18 -16 -19 -36v-16q1 -44 9 -124q10 -94 62 -104q6 -1 11 -1q49 -1 115 71q74 80 114 164q9 2 17 2 q32 0 32 -43q0 -18 -6 -44q-15 -86 -97 -166q-80 -81 -188 -87q-8 -1 -17 0q-95 0 -140 72q-49 78 -56 149.5t-18 144.5q-4 6 -6.5 12.5t-3.5 11.5q-29 -89 -49 -184t-26 -163.5t-65.5 -68.5t-76.5 39zM225 629q101 69 137.5 126.5t55.5 159.5q4 23 4 37q0 21 -10 21 q-12 1 -40 -33q-65 -78 -98.5 -162t-48.5 -149z" />
<glyph unicode="l" horiz-adv-x="463" d="M-24 751q-2 50 -2 104q0 76 4 159q7 142 16 216q11 165 50 264l-2 -2q41 140 147 146h7q51 0 83 -26q34 -28 51 -88q3 -8 4.5 -18.5t2.5 -22.5q3 -17 3 -43q0 -40 -7 -102q-11 -100 -23 -168q-24 -213 -47 -308t-50 -156q-24 -54 -40.5 -108t-21.5 -99q2 -16 3.5 -32.5 t3.5 -32.5q13 -136 42 -162q15 -14 34 -14q18 0 38 13q44 25 99.5 95t92.5 141q6 4 11 4q26 0 28 -103q-18 -59 -62.5 -120t-99.5 -98.5t-77 -44.5t-50 -10q-5 -1 -12 -1q-27 0 -71 11q-41 33 -72.5 115.5t-52.5 218.5q-8 44 -14 91q-6 46 -10 91t-6 91v-1zM106 900 q6 -44 6 -75q0 -8 -1 -16q50 142 73 280t39 276q4 23 4 41q0 23 -6 40q-8 23 -28 28q-37 -51 -59.5 -163.5t-23.5 -210.5q-7 -89 -7 -144q0 -35 3 -56z" />
<glyph unicode="m" horiz-adv-x="1029" d="M-50 362q4 35 29.5 87.5t81.5 254.5l-2 -4q20 162 58.5 265t83.5 157q19 24 39 36q18 11 33 11h3q64 -3 69 -162l-9 -100q66 70 116 106q48 35 82 35h2q18 -1 31 -8.5t23 -22.5q28 -25 33 -87q57 102 131 142v-1q24 13 42 13q20 0 32 -16q24 -30 25 -117q-1 -12 -1.5 -29 t-2.5 -32l-56 -439q0 -100 2 -148q11 -34 36 -34q21 1 49 23q64 50 151 204q6 5 11 5q24 0 35 -93q-8 -67 -64.5 -130t-93 -93t-107.5 -52q-24 -3 -44 -3q-108 0 -112 92q-4 89 -4 155v28q0 53 9 143t22 183q-30 -44 -49 -96.5t-35 -151.5q-19 -102 -31.5 -182t-19.5 -133 q-40 -46 -71 -46h-2q-53 2 -55 98v11q0 55 8 191q10 150 25 365q-130 -118 -184 -636q-41 -38 -69 -38h-1q-33 1 -54 48q4 87 9 183t12 192l1.5 58.5t0.5 24.5v7q-58 -136 -116 -248q-45 -88 -69 -89q-7 0 -13 7q-21 27 -21 56q0 5 1 10z" />
<glyph unicode="n" horiz-adv-x="797" d="M-40 455q28 49 47.5 131.5t47 278t73.5 252.5q42 51 81 53h4q71 0 85 -154l-12 -143q154 198 230 202h5q32 0 52 -24q27 -24 31 -92q1 -24 1 -54v-32q-1 -50 -9 -115v1q1 -27 1 -56q-1 -97 -11 -209q-8 -92 -8 -142q0 -30 3 -46q1 -33 18 -33q11 0 27 11q44 30 95 95.5 t75 138.5q10 4 19 4q34 0 34 -61q0 -23 -5 -54q-58 -128 -142 -196.5t-161 -72.5h-9q-69 0 -80 54q-9 19 -14.5 53.5t-8.5 86.5q5 138 5 232v28q0 88 -3 222q-95 -54 -135 -206q-30 -116 -31 -314q0 -60 3 -127q-44 -46 -77 -48h-3q-38 0 -62 43q-2 130 -2 185q0 97 30 370 v-2q-2 39 -2.5 58t-0.5 25l-1 9q-51 -305 -101 -393q-34 -60 -61 -61q-12 0 -22 13q-19 22 -19 47q1 20 13 42z" />
<glyph unicode="o" horiz-adv-x="642" d="M2 390q-5 52 -5 112q-1 106 15 240q24 210 132 324q60 30 90 30q4 0 8 -1l-3 1q24 -3 63 -17v1q46 -17 102 -125q33 -63 40 -161q1 -16 2.5 -20t2 -7t0.5 -8.5t-1 -25.5q1 4 4 18l7 -95q-1 -31 -8 -95t-21 -160q-4 -8 -4 -20q0 -17 9 -43q9 -27 34 -27q15 0 35 9 q54 25 136 192l47 -104q-16 -58 -74 -133q-59 -75 -131 -106q-22 -9 -41 -9q-47 0 -84 51q-51 -64 -133 -80q-16 -3 -32 -3q-62 0 -110 52q-60 64 -80 210zM135 515v-16q0 -38 4 -65q6 -52 25 -80q27 -40 37 -40h2q62 27 62 57q0 3 -1 7q-92 182 -92 302v15q6 123 26 181 q6 18 6 21q0 6 -29 -61q-21 -34 -29 -71t-9 -119.5t-2 -130.5zM280 750q2 -43 16.5 -86.5t22.5 -81.5q19 82 22 152v15q1 56 -19 68q-10 6 -18 6q-10 0 -16 -11q-9 -15 -9 -47q1 -7 1 -15z" />
<glyph unicode="p" horiz-adv-x="824" d="M-52 352q23 81 40 118.5t35 97t24 108t16 86.5t42 139t139 118q100 -14 121 -101q72 166 198 166q40 0 79 -40q54 -92 64 -205q4 -49 4 -106q0 -75 -8 -163q-12 -157 -66 -230q-31 -42 -31 -56q0 -7 8 -7q4 0 10 1q41 13 111.5 98t90.5 138q42 -42 42 -72.5t-36 -99.5 q-35 -68 -111 -126q-74 -57 -196 -57h-4q-125 1 -193 53q-1 -6 -1.5 -11.5t-1.5 -11.5q-15 -96 -22.5 -148.5t-15 -103t-15 -97t-13.5 -87.5q-10 -1 -18 -1q-87 0 -114 105q10 40 26.5 133t40.5 245l17 95q0 24 1.5 51t3.5 51q0 37 3 145v26q0 95 -16 191q-26 -51 -30.5 -82 t-27.5 -118.5t-94 -209.5q-42 -70 -69 -70q-20 0 -33 38zM385 492q-2 -20 -2 -37q0 -51 19 -73q16 -21 35 -21q9 0 17 5q29 13 64 117t39 171q2 36 2 70q0 30 -1 60q-4 62 -11 82q-4 13 -10 15q-4 1 -7 1q-31 0 -66 -60q-17 -31 -31 -79.5t-48 -250.5z" />
<glyph unicode="q" horiz-adv-x="678" d="M-28 365q0 167 30 295.5t86 218.5q73 114 141 114q34 0 62 -27q7 47 23 97q139 -36 139 -139q0 -8 -1 -17q-20 -57 -29 -140q-1 -34 -2.5 -66t-3.5 -65v-93v-93v-48v-48q0 -37 -0.5 -55t-1 -28t-0.5 -15.5v-18.5t1 -36t3 -64q53 79 83 113.5t65.5 77.5t68.5 100.5 t44 81.5q2 1 4 1q23 0 44 -97q-6 -28 -34.5 -79t-90 -127.5t-80 -114.5t-21.5 -158.5t-6 -151.5t-10 -72q-5 -36 -19.5 -54.5t-40.5 -18.5q-34 0 -80 50q-77 82 -77 281v15q-5 38 -6.5 91.5t-1.5 118.5v5q0 7 -0.5 6t-0.5 -6q-54 -78 -120 -78q-58 0 -90.5 31.5t-64.5 116.5 q-11 26 -12 51t-1 45zM119 377q0 -72 17 -100q9 -11 10 -11q6 0 16.5 12.5t21.5 31.5q25 49 40.5 129t17.5 194q0 12 0.5 22.5t0.5 20.5q0 120 2 123l-7 -6q-64 -25 -102 -241q-9 -53 -13 -96t-4 -79zM260 180v8.5v10.5h1v-5q0 -10 -1 -14v-1v1z" />
<glyph unicode="r" horiz-adv-x="629" d="M-83 297v6q1 61 19 89q20 30 53.5 102t46.5 115t34 121q2 29 2 49q0 40 -9 45q-59 26 -58 127q4 99 67 123h-1q22 10 41 11h2q34 0 55 -30q11 -17 17.5 -36t8.5 -38q1 2 38 1q188 -39 188 -116q0 -7 -2 -14q-6 -23 -14 -64t-21 -102q-4 -22 -34 -221q-5 -51 -5 -88 q-1 -45 7 -67q14 -42 63 -42t112.5 75.5t103.5 161.5q11 9 19 9q27 0 27 -91v-5q-8 -49 -44.5 -101.5t-76 -89t-81 -50.5t-75.5 -22q-13 -3 -28 -3q-21 0 -42 8q-35 12 -67 36t-40.5 47.5t-14 49.5t-6 34.5t-0.5 20.5q-1 18 -1 37q-1 35 3 77q6 64 27 144q15 48 27 110 q11 57 11 91v5q-14 22 -70 29v-8.5t-2 -11.5q2 -8 -1 -28t-15.5 -76.5t-52.5 -161.5t-106 -211q-42 -68 -73 -69q-18 0 -32 22z" />
<glyph unicode="s" horiz-adv-x="385" d="M-208 166q8 91 49 104q77 50 115.5 105.5t71.5 406.5q82 414 180 423l25 17l38 -13v-13q-63 -188 -63 -244.5t63 -238.5t69 -219.5t13 -105.5q2 -15 2 -29q1 -51 -19 -97q-24 -59 -101 -89.5t-108.5 -30.5t-69 20.5t-37.5 92.5q-83 -88 -228 -89zM68 333 q102 -28 108.5 -28t6.5 19t-25 163t-31.5 144t-6.5 -81.5t-52 -216.5z" />
<glyph unicode="t" horiz-adv-x="616" d="M-101 940v13l88 -13h75l50 440h26q104 0 113 -151l-13 -289h289q75 0 75 63q75 -51 75 -125q-53 -51 -100 -51h-314l-25 -25v-514q8 -29 52 -29q16 0 36 4q142 0 314 175v-88q-155 -213 -302 -213h-37q-251 57 -251 201l12 477v25q-100 0 -163 100z" />
<glyph unicode="u" horiz-adv-x="596" d="M-21 377v25q6 165 13 238l25 440h25q126 0 126 -93q0 -9 -1 -18l-25 -417v-200q7 -65 43 -65t58 278l25 213l10 214l15 25h38q60 0 100 -63l-13 -314v-150q-4 -60 -4 -100q0 -80 14 -88l6 -2q24 0 82 82q66 92 78 123l39 -88q1 -51 -69.5 -136t-116.5 -109 q-28 -15 -53 -15q-16 1 -30 7q-38 16 -59 75q-78 -105 -153 -105q-6 0 -12 1q-161 49 -161 242z" />
<glyph unicode="v" horiz-adv-x="553" d="M-49 685q-1 21 -1 46q0 38 2 87q3 56 4 104q0 21 -1 40q-2 120 87 120q20 0 45 -6l18 -316q8 -325 101 -404q36 26 52 66q7 17 6 40q0 32 -12 77q-24 143 -32 178q-8 37 -9 113q-1 74 21 140q22 68 40 104q51 8 81 18q7 2 13 2q43 0 43 -30q0 -13 -11 -158 q-4 -136 -4 -219q0 -117 8 -131q14 -24 33 -42h-2q21 -33 99 -33h5q11 1 82 33l-9 -139q-20 -28 -73 -32h-12q-110 0 -151 68q-5 -32 -9 -54.5t-44 -94t-73 -87.5q-30 -39 -60 -39q-31 0 -64 42q-64 82 -94.5 143t-40.5 146.5t-22.5 125.5t-15.5 92z" />
<glyph unicode="w" horiz-adv-x="865" d="M-57 1126h139q37 0 40 -310q21 -307 62 -365q33 58 34 203.5t3 226.5q2 37 3 79q0 42 -6 52q-8 12 -8 64q0 50 85 50q80 0 80 -51v-7q-1 -23 6.5 -47.5t10.5 -112.5q8 -54 9 -145t9 -144q10 -32 12 -71t19 -58t17 -22q-2 -3 18 45q15 37 15 323q0 88 -1 199q11 59 37 75 t71 16q44 0 44 -114v-5q-4 -32 -9 -92.5t-15 -150.5v1q-2 -49 -5.5 -98.5t-6.5 -98.5q-7 -83 -7 -142q0 -142 40 -143q5 0 13 4q72 35 109.5 73.5t65 80t40.5 82.5l44 -105q-21 -77 -98 -162q-77 -84 -181 -98q-17 -2 -34 -3q-80 0 -130 56q-60 67 -139 174 q-68 -145 -104 -205q-26 -43 -64 -43q-14 0 -29 6q-24 9 -60.5 46t-71 153.5t-35 228t-11.5 154.5q3 28 3 77q0 109 -14 324zM476 772q14 -16 20 -16h2q-12 4 -22 16z" />
<glyph unicode="x" horiz-adv-x="790" d="M-21 444q37 64 52 93t31.5 84t50.5 158t82 228q14 61 53 68h2q69 0 83 -233q9 -32 18 -66t31 -58q14 26 33 62.5t41 76.5t53.5 111.5t46.5 107.5q74 -75 79 -177q-51 -125 -94.5 -215t-77.5 -144q7 -61 19 -108q10 -47 42 -115q21 -45 53 -45q16 0 34 12q55 34 111 106.5 t73 120.5l43 -101q-13 -41 -65 -113t-120 -113q-47 -28 -91 -28q-19 0 -38 5q-61 18 -113 109t-67 140q-25 -47 -59 -118.5t-88 -150.5q-32 -10 -55 -10q-62 0 -65 69q0 11 1 24t4 26q46 82 90 162.5t113 190.5q-7 32 -44 118q-3 3 -6 3q-13 0 -27 -50q-18 -62 -65.5 -144 t-107.5 -176q-15 -15 -26 -15q-29 0 -30 105z" />
<glyph unicode="y" horiz-adv-x="645" d="M-178 -306q9 82 92.5 193t247.5 254l-54 -5q-113 0 -119 295q-4 78 -14 192t-12 192t-4 149t-2 126l119 -19l35 -43q-2 -53 -2 -98v-88q10 -370 10 -454q0 -22 -1 -25q27 24 52.5 74t46.5 120q29 119 37.5 224t20.5 265q54 27 81 27q68 0 76 -91q1 -7 1 -17.5v-20.5 q0 -40 -6 -96t-19 -130q-4 -20 -4 -58v-24q1 -10 1 -20q0 -42 -6 -65q-4 -24 -6.5 -35.5t-3.5 -14.5t0 -1.5t1 4.5q-2 -3 -4 -18t-10 -49q-27 -71 -50 -214q53 16 115.5 45.5t126.5 115.5t77 121q4 1 7 1q39 0 39 -75v-17q-10 -46 -68.5 -124.5t-147 -119.5t-149.5 -92 l-28 -81q-53 -196 -124 -307t-158 -137q-37 -11 -69 -11q-66 0 -97 40q-28 36 -28 100v12zM-34 -303q3 2 8 2.5t10 1.5q133 73 170 267q-104 -54 -181 -256h1q-3 -4 -4.5 -8t-3.5 -7z" />
<glyph unicode="z" horiz-adv-x="570" d="M-49 415q33 76 78 182.5t52.5 143.5t76.5 237v51q76 61 172 61q55 0 111 -14q61 -17 93 -54.5t32 -95.5q0 -56 -35 -138q-38 -70 -71.5 -146.5t-66.5 -159.5q-43 -78 -70.5 -131t-39.5 -81q-1 -3 33 -4q12 -2 23 -2q39 0 70 25q45 47 89.5 107.5t71.5 115.5q5 1 9 1 q38 0 38 -78q0 -11 -1 -25q-13 -27 -29.5 -65.5t-48 -77t-123.5 -128.5l-5 -3q-40 -7 -91.5 -12t-114.5 -7h-6q-125 0 -125 83q0 13 4.5 27.5t11.5 28.5q22 48 66 129t109 196q41 90 73.5 165.5t45.5 119.5q8 21 8 33q0 16 -38 19q-16 7 -21 7q-7 0 -11.5 -1t-15.5 -6 q-121 -296 -204 -442t-102 -152h-1q-31 0 -47 91z" />
<glyph unicode="{" />
<glyph unicode="|" />
<glyph unicode="}" />
<glyph unicode="~" horiz-adv-x="679" d="M29 551q0 13 4 24.5t9 24.5l1 1q72 126 159 118h-1q34 -2 75.5 -15t90.5 -36q84 -38 115 -38q11 1 20.5 5t17.5 14l-1 -1q53 64 107 7q21 -24 21 -52q0 -29 -25 -69q-44 -66 -131 -66q-35 0 -76 11t-85 34q-73 40 -115 39q-29 0 -45 -27q-47 -85 -110 -35q-31 25 -31 61z " />
<glyph unicode="&#xad;" horiz-adv-x="632" d="M19 669q-3 80 73 84h1q57 2 114 3.5t113 1.5q51 0 101 -1t101 -3q94 3 91 -80q-1 -37 -26 -56.5t-68 -20.5q-47 0 -99.5 -0.5t-107.5 -1t-109.5 -1t-104.5 -0.5q-74 -3 -79 75z" />
<glyph unicode="&#xf7;" horiz-adv-x="620" d="M40 1079q0 6 4 14q84 74 154 74q32 0 88 -22.5t87 -29.5q72 -10 109.5 9t51.5 19q17 0 31.5 -14.5t14.5 -32.5q0 -35 -63 -76.5t-149 -31.5q-42 7 -101.5 36t-74.5 29q-25 0 -62.5 -5t-48.5 -5q-13 0 -27 12t-14 24z" />
<glyph unicode="&#x2000;" horiz-adv-x="931" />
<glyph unicode="&#x2001;" horiz-adv-x="1862" />
<glyph unicode="&#x2002;" horiz-adv-x="931" />
<glyph unicode="&#x2003;" horiz-adv-x="1862" />
<glyph unicode="&#x2004;" horiz-adv-x="620" />
<glyph unicode="&#x2005;" horiz-adv-x="465" />
<glyph unicode="&#x2006;" horiz-adv-x="310" />
<glyph unicode="&#x2007;" horiz-adv-x="310" />
<glyph unicode="&#x2008;" horiz-adv-x="232" />
<glyph unicode="&#x2009;" horiz-adv-x="372" />
<glyph unicode="&#x200a;" horiz-adv-x="103" />
<glyph unicode="&#x2010;" horiz-adv-x="632" d="M19 669q-3 80 73 84h1q57 2 114 3.5t113 1.5q51 0 101 -1t101 -3q94 3 91 -80q-1 -37 -26 -56.5t-68 -20.5q-47 0 -99.5 -0.5t-107.5 -1t-109.5 -1t-104.5 -0.5q-74 -3 -79 75z" />
<glyph unicode="&#x2011;" horiz-adv-x="632" d="M19 669q-3 80 73 84h1q57 2 114 3.5t113 1.5q51 0 101 -1t101 -3q94 3 91 -80q-1 -37 -26 -56.5t-68 -20.5q-47 0 -99.5 -0.5t-107.5 -1t-109.5 -1t-104.5 -0.5q-74 -3 -79 75z" />
<glyph unicode="&#x2012;" horiz-adv-x="632" d="M19 669q-3 80 73 84h1q57 2 114 3.5t113 1.5q51 0 101 -1t101 -3q94 3 91 -80q-1 -37 -26 -56.5t-68 -20.5q-47 0 -99.5 -0.5t-107.5 -1t-109.5 -1t-104.5 -0.5q-74 -3 -79 75z" />
<glyph unicode="&#x2013;" horiz-adv-x="1059" d="M18 669q-5 80 126 84h2q98 2 196 3.5t195 1.5q88 0 174 -1t174 -3q162 3 157 -80q-2 -37 -45 -56.5t-117 -20.5q-81 0 -171.5 -0.5t-185.5 -1t-188.5 -1t-180.5 -0.5q-127 -3 -136 75z" />
<glyph unicode="&#x2014;" horiz-adv-x="2084" d="M18 669q-10 80 252 84h3q197 2 393.5 3.5t389.5 1.5q176 0 348 -1t348 -3q324 3 314 -80q-4 -37 -90 -56.5t-234 -20.5q-162 0 -343 -0.5t-370.5 -1t-377.5 -1t-360 -0.5q-255 -3 -273 75z" />
<glyph unicode="&#x202f;" horiz-adv-x="372" />
<glyph unicode="&#x205f;" horiz-adv-x="465" />
<glyph unicode="&#x25fc;" horiz-adv-x="1075" d="M0 0v1075h1075v-1075h-1075z" />
</font>
</defs>
</svg>
